HIERARCHY
ROOT root
{
  OFFSET 0 95.9893 0
  CHANNELS 6 Xposition Yposition Zposition Zrotation Xrotation Yrotation
  JOINT torso_1
  {
    OFFSET 0 5.22546 -1.18466
    CHANNELS 6 Xposition Yposition Zposition Zrotation Xrotation Yrotation
    JOINT torso_2
    {
      OFFSET 0 5.77894 1.10239
      CHANNELS 6 Xposition Yposition Zposition Zrotation Xrotation Yrotation
      JOINT torso_3
      {
        OFFSET -1.0557e-17 6.16289 0.118334
        CHANNELS 6 Xposition Yposition Zposition Zrotation Xrotation Yrotation
        JOINT torso_4
        {
          OFFSET -1.13649e-17 6.69386 -0.456341
          CHANNELS 6 Xposition Yposition Zposition Zrotation Xrotation Yrotation
          JOINT torso_5
          {
            OFFSET -2.02997e-17 7.82529 -1.54945
            CHANNELS 6 Xposition Yposition Zposition Zrotation Xrotation Yrotation
            JOINT torso_6
            {
              OFFSET -2.60628e-17 9.77186 -0.940923
              CHANNELS 6 Xposition Yposition Zposition Zrotation Xrotation Yrotation
              JOINT torso_7
              {
                OFFSET -2.98794e-17 10.8563 1.62248
                CHANNELS 6 Xposition Yposition Zposition Zrotation Xrotation Yrotation
                JOINT neck_1
                {
                  OFFSET -1.32927e-17 4.92478 0.736013
                  CHANNELS 6 Xposition Yposition Zposition Zrotation Xrotation Yrotation
                  JOINT neck_2
                  {
                    OFFSET -1.86396e-17 4.96043 0.433981
                    CHANNELS 6 Xposition Yposition Zposition Zrotation Xrotation Yrotation
                    JOINT head
                    {
                      OFFSET -2.06766e-17 4.97002 0.787173
                      CHANNELS 6 Xposition Yposition Zposition Zrotation Xrotation Yrotation
                      End Site
                      {
                        OFFSET 0 0.1 0
                      }
                    }
                  }
                }
                JOINT l_shoulder
                {
                  OFFSET 1.26863 -7.82717 7.75148
                  CHANNELS 6 Xposition Yposition Zposition Zrotation Xrotation Yrotation
                  JOINT l_up_arm
                  {
                    OFFSET 13.3291 3.34342 -3.36319
                    CHANNELS 6 Xposition Yposition Zposition Zrotation Xrotation Yrotation
                    JOINT l_low_arm
                    {
                      OFFSET 30.0522 0.0615366 0.141
                      CHANNELS 6 Xposition Yposition Zposition Zrotation Xrotation Yrotation
                      JOINT l_hand
                      {
                        OFFSET 24.9344 0.0510561 0.116988
                        CHANNELS 6 Xposition Yposition Zposition Zrotation Xrotation Yrotation
                        End Site
                        {
                          OFFSET 0.1 0 0
                        }
                      }
                    }
                  }
                }
                JOINT r_shoulder
                {
                  OFFSET -1.26863 -7.82715 7.75138
                  CHANNELS 6 Xposition Yposition Zposition Zrotation Xrotation Yrotation
                  JOINT r_up_arm
                  {
                    OFFSET -13.3291 3.34342 -3.36319
                    CHANNELS 6 Xposition Yposition Zposition Zrotation Xrotation Yrotation
                    JOINT r_low_arm
                    {
                      OFFSET -30.0522 0.0615366 0.141
                      CHANNELS 6 Xposition Yposition Zposition Zrotation Xrotation Yrotation
                      JOINT r_hand
                      {
                        OFFSET -24.9344 0.0510559 0.116988
                        CHANNELS 6 Xposition Yposition Zposition Zrotation Xrotation Yrotation
                        End Site
                        {
                          OFFSET -0.1 0 0
                        }
                      }
                    }
                  }
                }
              }
            }
          }
        }
      }
    }
  }
  JOINT l_up_leg
  {
    OFFSET 9.50369 -4.32711 2.09145
    CHANNELS 6 Xposition Yposition Zposition Zrotation Xrotation Yrotation
    JOINT l_low_leg
    {
      OFFSET -0.876987 -39.8926 -0.674123
      CHANNELS 6 Xposition Yposition Zposition Zrotation Xrotation Yrotation
      JOINT l_foot
      {
        OFFSET -2.39345 -41.5694 -6.22357
        CHANNELS 6 Xposition Yposition Zposition Zrotation Xrotation Yrotation
        JOINT l_toes
        {
          OFFSET 0.801613 -10.1701 12.8571
          CHANNELS 6 Xposition Yposition Zposition Zrotation Xrotation Yrotation
          End Site
          {
            OFFSET 0 0 0.1
          }
        }
      }
    }
  }
  JOINT r_up_leg
  {
    OFFSET -9.50369 -4.32711 2.09145
    CHANNELS 6 Xposition Yposition Zposition Zrotation Xrotation Yrotation
    JOINT r_low_leg
    {
      OFFSET 0.876987 -39.8926 -0.674123
      CHANNELS 6 Xposition Yposition Zposition Zrotation Xrotation Yrotation
      JOINT r_foot
      {
        OFFSET 2.39345 -41.5694 -6.22357
        CHANNELS 6 Xposition Yposition Zposition Zrotation Xrotation Yrotation
        JOINT r_toes
        {
          OFFSET -0.801613 -10.1701 12.8571
          CHANNELS 6 Xposition Yposition Zposition Zrotation Xrotation Yrotation
          End Site
          {
            OFFSET 0 0 0.1
          }
        }
      }
    }
  }
}
MOTION
Frames: 5
Frame Time: 0.016667
0 95.9893 0 -0 0 -0 0 5.22546 -1.18466 -0 0 -0 0 5.77894 1.10239 -0 0 -0 -1.0557e-17 6.16289 0.118334 -0 0 -0 -1.13649e-17 6.69386 -0.456341 -0 0 -0 -2.02997e-17 7.82529 -1.54945 -0 0 -0 -2.60628e-17 9.77186 -0.940923 -0 0 -0 -2.98794e-17 10.8563 1.62248 -0 0 -0 -1.32927e-17 4.92478 0.736013 -0 0 -0 -1.86396e-17 4.96043 0.433981 -0 0 -0 -2.06766e-17 4.97002 0.787173 -0 0 -0 1.26863 -7.82717 7.75148 -0 0 -0 13.3291 3.34342 -3.36319 -0 0 -0 30.0522 0.0615366 0.141 -0 0 -0 24.9344 0.0510561 0.116988 -0 0 -0 -1.26863 -7.82715 7.75138 -0 0 -0 -13.3291 3.34342 -3.36319 -0 0 -0 -30.0522 0.0615366 0.141 -0 0 -0 -24.9344 0.0510559 0.116988 -0 0 -0 9.50369 -4.32711 2.09145 -0 0 -0 -0.876987 -39.8926 -0.674123 -0 0 -0 -2.39345 -41.5694 -6.22357 -0 0 -0 0.801613 -10.1701 12.8571 -0 0 -0 -9.50369 -4.32711 2.09145 -0 0 -0 0.876987 -39.8926 -0.674123 -0 0 -0 2.39345 -41.5694 -6.22357 -0 0 -0 -0.801613 -10.1701 12.8571 -0 0 -0 
-372 96.2828 -1036.95 -0.557887 1.41461 3.56564 0 5.22546 -1.18466 -0.825068 0.984828 -0.280209 0 5.77894 1.10239 -0.396445 1.13666 -0.432646 -1.0557e-17 6.16289 0.118334 -0.146799 1.47455 -0.352904 -1.13649e-17 6.69386 -0.456341 0.0918775 1.66684 -0.32799 -2.02997e-17 7.82529 -1.54945 0.294035 1.39832 -0.401579 -2.60628e-17 9.77186 -0.940923 0.46562 1.01715 -0.774342 -2.98794e-17 10.8563 1.62248 -0.0428738 0.772917 -0.0381731 -1.32927e-17 4.92478 0.736013 0.752233 3.68654 -0.159102 -1.86396e-17 4.96043 0.433981 1.05574 -3.89542 -0.192501 -2.06766e-17 4.97002 0.787173 -0.0135013 -4.61548 1.69846 1.26863 -7.82717 7.75148 2.35222 2.02705 -0.061246 13.3291 3.34342 -3.36319 -90.2167 20.3112 -5.11015 30.0522 0.0615366 0.141 2.27208 -0.207242 -11.013 24.9344 0.0510561 0.116988 0.0037617 -22.0155 -3.91914 -1.26863 -7.82715 7.75138 -0.355763 2.65121 -0.243523 -13.3291 3.34342 -3.36319 87.4744 18.2602 2.76546 -30.0522 0.0615366 0.141 -2.19636 -0.193018 10.6408 -24.9344 0.0510559 0.116988 2.37834 -15.8048 3.99811 9.50369 -4.32711 2.09145 -0.204419 -4.53992 -12.4533 -0.876987 -39.8926 -0.674123 -0.588453 2.19763 -0.0270753 -2.39345 -41.5694 -6.22357 1.23583 1.19619 14.8957 0.801613 -10.1701 12.8571 5.07655e-16 -6.50951e-16 -2.10293e-16 -9.50369 -4.32711 2.09145 2.56366 -5.26861 16.6372 0.876987 -39.8926 -0.674123 0.440539 1.64505 0.0223906 2.39345 -41.5694 -6.22357 -3.16801 3.69347 -14.2822 -0.801613 -10.1701 12.8571 -5.97223e-16 -3.86009e-16 -1.25796e-14 
-372.011 96.2894 -1036.95 -0.542912 1.3736 3.56505 0 5.22546 -1.18466 -0.804601 0.902107 -0.248136 0 5.77894 1.10239 -0.391099 1.07963 -0.394921 -1.0557e-17 6.16289 0.118334 -0.148808 1.44519 -0.313552 -1.13649e-17 6.69386 -0.456341 0.0815749 1.68302 -0.287456 -2.02997e-17 7.82529 -1.54945 0.284945 1.45124 -0.358524 -2.60628e-17 9.77186 -0.940923 0.463606 1.10412 -0.728279 -2.98794e-17 10.8563 1.62248 -0.0415216 0.773391 -0.0329236 -1.32927e-17 4.92478 0.736013 0.720857 3.43151 -0.271052 -1.86396e-17 4.96043 0.433981 1.04048 -3.89861 -0.244182 -2.06766e-17 4.97002 0.787173 -0.0896721 -4.51555 1.65462 1.26863 -7.82717 7.75148 2.18781 2.04561 -0.0630154 13.3291 3.34342 -3.36319 -90.0059 20.5726 -4.93482 30.0522 0.0615366 0.141 2.31974 -0.216362 -11.2467 24.9344 0.0510561 0.116988 0.167032 -22.1163 -4.03459 -1.26863 -7.82715 7.75138 -0.11723 2.70255 -0.210729 -13.3291 3.34342 -3.36319 86.995 18.7513 2.58705 -30.0522 0.0615366 0.141 -2.24782 -0.202528 10.8929 -24.9344 0.0510559 0.116988 2.49125 -16.6751 3.99188 9.50369 -4.32711 2.09145 -0.206714 -4.50439 -12.4768 -0.876987 -39.8926 -0.674123 -0.592431 2.21249 -0.0271816 -2.39345 -41.5694 -6.22357 1.21416 1.22234 14.8946 0.801613 -10.1701 12.8571 1.18787e-16 -6.67752e-16 -1.98232e-16 -9.50369 -4.32711 2.09145 2.55946 -5.23885 16.686 0.876987 -39.8926 -0.674123 0.446042 1.6656 0.0225905 2.39345 -41.5694 -6.22357 -3.15503 3.70952 -14.283 -0.801613 -10.1701 12.8571 -6.00124e-16 -3.85884e-16 -1.25795e-14 
-372.031 96.2896 -1036.95 -0.530531 1.32962 3.53652 0 5.22546 -1.18466 -0.786776 0.849594 -0.211498 0 5.77894 1.10239 -0.38843 1.04232 -0.353252 -1.0557e-17 6.16289 0.118334 -0.15335 1.42355 -0.270656 -1.13649e-17 6.69386 -0.456341 0.0688452 1.6879 -0.243465 -2.02997e-17 7.82529 -1.54945 0.274065 1.48094 -0.311931 -2.60628e-17 9.77186 -0.940923 0.461283 1.15999 -0.677818 -2.98794e-17 10.8563 1.62248 -0.0415179 0.775022 -0.026845 -1.32927e-17 4.92478 0.736013 0.683418 3.2016 -0.363379 -1.86396e-17 4.96043 0.433981 1.02191 -3.89462 -0.287331 -2.06766e-17 4.97002 0.787173 -0.138927 -4.42636 1.60051 1.26863 -7.82717 7.75148 2.05929 2.06191 -0.0564666 13.3291 3.34342 -3.36319 -89.8345 20.6119 -4.71931 30.0522 0.0615366 0.141 2.38191 -0.228562 -11.5519 24.9344 0.0510561 0.116988 0.359198 -21.9596 -3.9815 -1.26863 -7.82715 7.75138 0.128207 2.76402 -0.178111 -13.3291 3.34342 -3.36319 86.584 19.2062 2.40933 -30.0522 0.0615366 0.141 -2.29323 -0.211117 11.1155 -24.9344 0.0510559 0.116988 2.62492 -17.5868 3.99624 9.50369 -4.32711 2.09145 -0.198896 -4.47804 -12.4696 -0.876987 -39.8926 -0.674123 -0.601752 2.24731 -0.0274266 -2.39345 -41.5694 -6.22357 1.2058 1.22041 14.894 0.801613 -10.1701 12.8571 1.15886e-16 -6.67877e-16 -1.98141e-16 -9.50369 -4.32711 2.09145 2.56805 -5.22555 16.7479 0.876987 -39.8926 -0.674123 0.458109 1.71068 0.0230218 2.39345 -41.5694 -6.22357 -3.14704 3.70543 -14.2865 -0.801613 -10.1701 12.8571 -6.00124e-16 -3.85884e-16 -1.25795e-14 
-372.057 96.2814 -1036.96 -0.522931 1.31423 3.47966 0 5.22546 -1.18466 -0.775752 0.816589 -0.183162 0 5.77894 1.10239 -0.388989 1.01728 -0.321595 -1.0557e-17 6.16289 0.118334 -0.15918 1.4046 -0.237701 -1.13649e-17 6.69386 -0.456341 0.0569537 1.68072 -0.209699 -2.02997e-17 7.82529 -1.54945 0.263539 1.48835 -0.276025 -2.60628e-17 9.77186 -0.940923 0.457454 1.18443 -0.638754 -2.98794e-17 10.8563 1.62248 -0.0420385 0.776868 -0.0217578 -1.32927e-17 4.92478 0.736013 0.648429 2.98786 -0.410298 -1.86396e-17 4.96043 0.433981 0.997452 -3.863 -0.309869 -2.06766e-17 4.97002 0.787173 -0.161842 -4.33287 1.56089 1.26863 -7.82717 7.75148 1.9557 2.09334 -0.0596078 13.3291 3.34342 -3.36319 -89.6548 20.5654 -4.50142 30.0522 0.0615366 0.141 2.42535 -0.23729 -11.7653 24.9344 0.0510561 0.116988 0.465705 -21.8063 -3.83944 -1.26863 -7.82715 7.75138 0.373861 2.83411 -0.13093 -13.3291 3.34342 -3.36319 86.2277 19.6062 2.24144 -30.0522 0.0615366 0.141 -2.32897 -0.218002 11.2908 -24.9344 0.0510559 0.116988 2.76645 -18.5828 4.08019 9.50369 -4.32711 2.09145 -0.181473 -4.47757 -12.4262 -0.876987 -39.8926 -0.674123 -0.611572 2.284 -0.0276787 -2.39345 -41.5694 -6.22357 1.21023 1.1795 14.8941 0.801613 -10.1701 12.8571 -2.78782e-16 -6.84929e-16 -1.73474e-16 -9.50369 -4.32711 2.09145 2.58647 -5.23955 16.815 0.876987 -39.8926 -0.674123 0.469081 1.75167 0.0234057 2.39345 -41.5694 -6.22357 -3.13472 3.66649 -14.2949 -0.801613 -10.1701 12.8571 -9.94793e-16 -3.68832e-16 -1.25671e-14 
